<svg t="1683696112873" class="icon" viewBox="0 0 1024 1024" version="1.1" xmlns="http://www.w3.org/2000/svg" p-id="13294" width="135" height="135"><path d="M427.2 342.4l64-64v156.8c0 11.2 9.6 20.8 20.8 20.8 11.2 0 20.8-9.6 20.8-20.8V278.4l64 64c4.8 4.8 9.6 6.4 14.4 6.4s11.2-1.6 14.4-6.4c8-8 8-20.8 0-28.8l-88-89.6c-6.4-6.4-16-11.2-25.6-11.2-9.6 0-19.2 3.2-25.6 11.2l-88 88c-8 8-8 20.8 0 28.8 8 9.6 20.8 9.6 28.8 1.6z" fill="#ffffff" p-id="13295"></path><path d="M841.6 336h-72C768 196.8 652.8 83.2 512 83.2S256 196.8 254.4 336h-72c-35.2 0-65.6 28.8-65.6 65.6v475.2c0 35.2 28.8 65.6 65.6 65.6h660.8c35.2 0 65.6-28.8 65.6-65.6V401.6c-1.6-35.2-30.4-65.6-67.2-65.6zM512 131.2c115.2 0 209.6 94.4 209.6 209.6S627.2 550.4 512 550.4 302.4 456 302.4 340.8 396.8 131.2 512 131.2z m347.2 745.6c0 9.6-8 17.6-17.6 17.6H180.8c-9.6 0-17.6-8-17.6-17.6V401.6c0-9.6 8-17.6 17.6-17.6h76.8C278.4 505.6 384 596.8 512 596.8S744 505.6 764.8 384h76.8c9.6 0 17.6 8 17.6 17.6v475.2z" fill="#ffffff" p-id="13296"></path><path d="M760 640H280c-12.8 0-24 11.2-24 24s11.2 24 24 24h478.4c12.8 0 24-11.2 24-24 1.6-14.4-9.6-24-22.4-24z m0 131.2H280c-12.8 0-24 11.2-24 24s11.2 24 24 24h478.4c12.8 0 24-11.2 24-24s-9.6-24-22.4-24z" fill="#ffffff" p-id="13297"></path></svg>
