<svg t="1683696636451" class="icon" viewBox="0 0 1024 1024" version="1.1" xmlns="http://www.w3.org/2000/svg" p-id="20620" width="128" height="128"><path d="M752.8 545.6H545.6v207.2c0 114.4 92.8 207.2 207.2 207.2S960 867.2 960 752.8s-92.8-207.2-207.2-207.2z m0 369.6c-89.5 0-162.4-72.9-162.4-162.4V590.4h162.4c89.5 0 162.4 72.9 162.4 162.4s-72.9 162.4-162.4 162.4z m207.2-644C960 156.8 867.2 64 752.8 64s-207.2 92.8-207.2 207.2v207.2h207.2c114.4 0 207.2-92.8 207.2-207.2z m-369.6 0c0-89.5 72.9-162.4 162.4-162.4s162.4 72.9 162.4 162.4-72.9 162.4-162.4 162.4H590.4V271.2zM64.4 739c-7.8 120.7 87.8 221 206.8 221 72.5 0 136.3-37.3 173.3-93.7 9.9-15-0.6-35.1-18.6-35.1-7.8 0-14.8 4.2-19.1 10.7-34.1 51.7-96.9 82.9-165.5 70.6C176.9 901 124.6 849.6 112 785.4c-20.3-103.8 59-195 159.2-195h162.4v56c0 12.4 10 22.4 22.4 22.4 12.4 0 22.4-10 22.4-22.4V545.6H278.3c-110.4 0-206.7 83.3-213.9 193.4zM271.2 64C156.8 64 64 156.8 64 271.2s92.8 207.2 207.2 207.2h207.2V271.2C478.4 156.8 385.6 64 271.2 64z m162.4 369.6H271.2c-89.5 0-162.4-72.9-162.4-162.4s72.9-162.4 162.4-162.4 162.4 72.9 162.4 162.4v162.4z m22.4 280c-12.4 0-22.4 10-22.4 22.4v16.8c0 6.5-0.4 12.9-1.2 19.2-1.7 13.6 8.4 25.6 22 25.6 11.4 0 21-8.5 22.4-19.8 1-8.2 1.6-16.5 1.6-25V736c0-12.4-10-22.4-22.4-22.4z" fill="#ffffff" p-id="20621"></path></svg>
