<svg t="1683696864182" class="icon" viewBox="0 0 1024 1024" version="1.1" xmlns="http://www.w3.org/2000/svg" p-id="25846" width="128" height="128"><path d="M85.500814 556.75839c-10.892071 0-19.75288-8.861832-19.75288-19.75288 0-10.890025 8.860808-19.751856 19.75288-19.751856l269.445732 0c10.891048 0 19.753903 8.861832 19.753903 19.751856 0 10.891048-8.862855 19.75288-19.753903 19.75288L85.500814 556.75839 85.500814 556.75839zM85.500814 268.162506c-10.892071 0-19.75288-8.860808-19.75288-19.750833 0-10.892071 8.860808-19.75288 19.75288-19.75288l265.921465 0c10.892071 0 19.753903 8.860808 19.753903 19.75288 0 10.891048-8.862855 19.750833-19.755949 19.750833L85.500814 268.162506 85.500814 268.162506zM85.500814 897.223618c-10.892071 0-19.75288-8.861832-19.75288-19.755949 0-10.890025 8.860808-19.751856 19.75288-19.751856l853.93265 0c10.893094 0 19.753903 8.861832 19.753903 19.751856 0 10.894118-8.860808 19.755949-19.753903 19.755949L85.500814 897.223618 85.500814 897.223618zM940.144662 605.113701c-5.285377 0-10.253528-2.060939-13.985526-5.802146L807.256072 480.109686l-0.892323 0.733711c-35.914978 29.514197-79.594803 45.1145-126.318964 45.1145-53.336766 0-103.482863-20.815071-141.201929-58.611909-77.794807-78.017888-77.796854-204.960045-0.005117-282.974863 37.724183-37.809117 87.871303-58.630329 141.207046-58.630329 53.337789 0 103.478769 20.821211 141.190673 58.629305 34.95614 35.046191 55.589063 81.656765 58.096163 131.24516 2.489704 49.226145-12.991895 97.350189-43.590797 135.505183l-0.715291 0.890276 119.105678 119.40346c3.727904 3.733021 5.77554 8.697079 5.767354 13.973246-0.00614 5.275143-2.068102 10.234085-5.801123 13.959943C950.368514 603.065042 945.414689 605.113701 940.144662 605.113701L940.144662 605.113701zM680.044786 165.246555c-42.769083 0-82.983993 16.700357-113.238041 47.025013-62.450331 62.630433-62.448284 164.540474 0.00307 227.171929 30.252001 30.3134 70.464865 47.007617 113.234971 47.007617 42.767036 0 82.974783-16.695241 113.221668-47.009663 62.472843-62.632479 62.472843-164.540474-0.002047-227.170906C763.018545 181.945889 722.810798 165.246555 680.044786 165.246555L680.044786 165.246555z" fill="#ffffff" p-id="25847"></path></svg>
