<svg t="1683696708717" class="icon" viewBox="0 0 1024 1024" version="1.1" xmlns="http://www.w3.org/2000/svg" p-id="22503" width="128" height="128"><path d="M693.76 261.771636H211.549091a117.76 117.76 0 0 0-117.620364 117.620364v317.765818a117.76 117.76 0 0 0 117.620364 117.620364h11.496727v72.471273a41.099636 41.099636 0 0 0 61.719273 35.607272l187.205818-108.078545h221.789091a117.76 117.76 0 0 0 117.666909-117.620364V379.298909a117.713455 117.713455 0 0 0-117.666909-117.527273z m57.809455 435.386182c0 31.883636-25.925818 57.762909-57.809455 57.762909H456.005818l-173.102545 99.979637v-99.979637H211.549091a57.809455 57.809455 0 0 1-57.762909-57.762909V379.298909c0-31.883636 25.879273-57.762909 57.762909-57.762909h482.210909c31.883636 0 57.809455 25.879273 57.809455 57.762909v317.858909z" fill="#ffffff" p-id="22504"></path><path d="M811.752727 93.928727H329.541818c-47.383273 0-89.832727 28.16-108.357818 71.819637a29.789091 29.789091 0 0 0 15.918545 39.191272 29.789091 29.789091 0 0 0 39.144728-15.918545c9.076364-21.410909 29.928727-35.234909 53.248-35.234909h482.210909c31.883636 0 57.762909 25.879273 57.762909 57.762909v317.858909c0 19.828364-10.007273 38.027636-26.717091 48.686545a29.835636 29.835636 0 0 0-9.076364 41.332364 29.789091 29.789091 0 0 0 41.332364 9.169455 117.201455 117.201455 0 0 0 54.318545-99.188364v-317.905455a117.573818 117.573818 0 0 0-117.527272-117.573818z" fill="#ffffff" p-id="22505"></path><path d="M609.792 430.452364h-314.181818a29.882182 29.882182 0 1 0 0 59.857454h314.181818a29.882182 29.882182 0 1 0 0-59.857454z m-46.731636 142.894545H295.563636a29.882182 29.882182 0 1 0 0 59.857455h267.450182a29.882182 29.882182 0 1 0 0-59.857455z" fill="#ffffff" p-id="22506"></path></svg>
