<svg t="1683695671615" class="icon" viewBox="0 0 1024 1024" version="1.1" xmlns="http://www.w3.org/2000/svg" p-id="4030" width="128" height="128"><path d="M840.7 95.9H448.2c-44.5 0-80.6 36.2-80.6 80.6v89.3c-81.1 17.8-141.9 90.2-141.9 176.6 0 47 18.1 89.9 47.6 122.1-97 1.1-175.7 80.3-175.7 177.6v10.4c0 97.9 79.7 177.6 177.6 177.6h262.5c74.4 0 138.2-45.9 164.6-110.9h138.4c44.5 0 80.6-36.2 80.6-80.6V176.5c0.1-44.5-36.1-80.6-80.6-80.6zM406.5 341.6c55.6 0 100.8 45.2 100.8 100.8s-45.2 100.8-100.8 100.8S305.7 498 305.7 442.4s45.2-100.8 100.8-100.8z m228.8 410.9c0 53.8-43.8 97.6-97.6 97.6H275.3c-53.8 0-97.6-43.8-97.6-97.6v-10.4c0-53.8 43.8-97.6 97.6-97.6h262.5c53.8 0 97.6 43.8 97.6 97.6v10.4z m206.1-13.9c0 0.4-0.3 0.6-0.6 0.6H715.3c-1.5-96-79.5-173.7-175.6-174.7 29.5-32.2 47.6-75.1 47.6-122.1 0-85.6-59.7-157.4-139.7-176.1v-89.7c0-0.4 0.3-0.6 0.6-0.6h392.5c0.4 0 0.6 0.3 0.6 0.6v562z" p-id="4031" fill="#ffffff"></path></svg>
