<svg t="1683696236889" class="icon" viewBox="0 0 1024 1024" version="1.1" xmlns="http://www.w3.org/2000/svg" p-id="14650" width="128" height="128"><path d="M812.373333 962.56H211.626667c-75.093333 0-136.533333-61.44-136.533334-136.533333V197.973333c0-75.093333 61.44-136.533333 136.533334-136.533333h600.746666c75.093333 0 136.533333 61.44 136.533334 136.533333v628.053334c0 75.093333-61.44 136.533333-136.533334 136.533333zM211.626667 129.706667c-34.133333 0-68.266667 27.306667-68.266667 68.266666v628.053334c0 34.133333 27.306667 68.266667 68.266667 68.266666h600.746666c34.133333 0 68.266667-27.306667 68.266667-68.266666V197.973333c0-34.133333-27.306667-68.266667-68.266667-68.266666H211.626667z" fill="#ffffff" p-id="14651"></path><path d="M737.28 361.813333H286.72c-20.48 0-34.133333-13.653333-34.133333-34.133333s13.653333-34.133333 34.133333-34.133333h450.56c20.48 0 34.133333 13.653333 34.133333 34.133333s-13.653333 34.133333-34.133333 34.133333zM737.28 552.96H286.72c-20.48 0-34.133333-13.653333-34.133333-34.133333s13.653333-34.133333 34.133333-34.133334h450.56c20.48 0 34.133333 13.653333 34.133333 34.133334s-13.653333 34.133333-34.133333 34.133333zM566.613333 744.106667H286.72c-20.48 0-34.133333-13.653333-34.133333-34.133334s13.653333-34.133333 34.133333-34.133333h279.893333c20.48 0 34.133333 13.653333 34.133334 34.133333s-13.653333 34.133333-34.133334 34.133334z" fill="#ffffff" p-id="14652"></path></svg>
