<svg t="1683696297618" class="icon" viewBox="0 0 1024 1024" version="1.1" xmlns="http://www.w3.org/2000/svg" p-id="15406" width="128" height="128"><path d="M901.12 861.525333l-69.973333-70.144a127.488 127.488 0 0 0-107.690667-195.015111c-32.540444 0-65.024 12.458667-89.884444 37.319111a127.601778 127.601778 0 0 0 0 180.110223 126.464 126.464 0 0 0 157.354666 17.863111l69.973334 70.144a28.330667 28.330667 0 0 0 40.106666 0 28.444444 28.444444 0 0 0 0.056889-40.277334z m-177.607111-67.413333c-18.773333 0-36.408889-7.281778-49.664-20.593778a69.973333 69.973333 0 0 1-20.536889-49.777778c0-18.773333 7.224889-36.522667 20.536889-49.777777 13.312-13.312 30.947556-20.650667 49.664-20.650667 18.773333 0 36.465778 7.338667 49.664 20.650667 13.312 13.312 20.593778 31.004444 20.593778 49.777777 0 18.773333-7.281778 36.522667-20.593778 49.777778a69.688889 69.688889 0 0 1-49.664 20.593778zM255.488 484.465778h227.84a28.387556 28.387556 0 0 0 0-56.888889H255.488a28.387556 28.387556 0 0 0 0 56.888889z" fill="#ffffff" p-id="15407"></path><path d="M787.228444 276.992l-153.6-154.851556A28.501333 28.501333 0 0 0 613.432889 113.777778H171.349333a56.888889 56.888889 0 0 0-56.775111 56.888889v682.666666c0 31.402667 25.372444 56.888889 56.775111 56.888889h368.867556a28.387556 28.387556 0 0 0 0-56.888889H199.68a28.387556 28.387556 0 0 1-28.444444-28.444444v-625.777778c0-15.758222 12.743111-28.444444 28.444444-28.444444h340.48v142.222222c0 31.402667 25.372444 56.888889 56.775111 56.888889h141.880889V512a28.387556 28.387556 0 1 0 56.775111 0V297.073778a28.899556 28.899556 0 0 0-8.419555-20.081778zM625.208889 312.888889a23.267556 23.267556 0 0 1-4.380445-0.341333l-2.730666-0.568889a27.704889 27.704889 0 0 1-7.623111-3.185778l-2.275556-1.479111a28.387556 28.387556 0 0 1-7.281778-8.021334l-1.365333-2.389333-0.512-1.251555a28.558222 28.558222 0 0 1-2.218667-11.093334V170.666667l141.880889 142.222222h-113.493333z" fill="#ffffff" p-id="15408"></path><path d="M596.878222 170.666667v113.777777c0 3.925333 4.096 7.623111 11.377778 11.093334-7.281778-3.413333-11.377778-7.111111-11.377778-11.093334V170.666667z m17.066667 131.811555l-11.377778-5.688889c3.015111 1.934222 6.826667 3.811556 11.377778 5.688889zM255.146667 596.423111a28.387556 28.387556 0 0 0 0 56.888889h114.346666a28.387556 28.387556 0 0 0 0-56.888889h-114.346666z" fill="#ffffff" p-id="15409"></path></svg>
