<svg t="1683695952628" class="icon" viewBox="0 0 1024 1024" version="1.1" xmlns="http://www.w3.org/2000/svg" p-id="10612" width="128" height="128"><path d="M159.744 998.4a132.096 132.096 0 0 1-65.024-17.152A136.448 136.448 0 0 1 25.6 861.184V218.624A190.976 190.976 0 0 1 213.76 25.6h596.48A190.976 190.976 0 0 1 998.4 218.624v642.56a136.448 136.448 0 0 1-69.12 120.064 130.816 130.816 0 0 1-132.608-1.792l-215.808-129.536a133.12 133.12 0 0 0-137.728 0l-215.808 129.536a131.584 131.584 0 0 1-67.584 18.944zM512 779.52a185.088 185.088 0 0 1 95.232 25.6l215.808 129.536a79.104 79.104 0 0 0 80.896 0A84.992 84.992 0 0 0 947.2 861.184V218.624A139.52 139.52 0 0 0 810.24 76.8H213.76A139.52 139.52 0 0 0 76.8 218.624v642.56a84.992 84.992 0 0 0 43.264 75.264 79.104 79.104 0 0 0 80.896 0l215.808-129.536A185.088 185.088 0 0 1 512 779.52z" fill="#ffffff" p-id="10613"></path><path d="M327.936 442.368H231.936a70.912 70.912 0 0 1-70.656-70.656v-96.256A70.656 70.656 0 0 1 231.936 204.8h96a70.656 70.656 0 0 1 70.656 70.4v96.256a70.912 70.912 0 0 1-70.656 70.912zM231.936 256a19.456 19.456 0 0 0-19.456 19.2v96.256a19.456 19.456 0 0 0 19.456 19.456h96a19.456 19.456 0 0 0 19.456-19.456v-96a19.456 19.456 0 0 0-19.456-19.2zM837.12 256H518.656a25.6 25.6 0 0 1 0-51.2H837.12a25.6 25.6 0 0 1 0 51.2zM837.12 442.368H518.656a25.6 25.6 0 0 1 0-51.2H837.12a25.6 25.6 0 0 1 0 51.2zM837.12 628.48H186.88a25.6 25.6 0 0 1 0-51.2h650.24a25.6 25.6 0 0 1 0 51.2z" fill="#ffffff" p-id="10614"></path></svg>
