<svg t="1683696434295" class="icon" viewBox="0 0 1028 1024" version="1.1" xmlns="http://www.w3.org/2000/svg" p-id="16977" width="128" height="128"><path d="M182.661611 328.888889h494.2723v36.55712H182.661611z m0 365.320814h118.56025a168.763693 168.763693 0 0 1 3.255086-36.557121h-121.815336z m640.375587-474.992176v192.30047c13.521127 0 25.665102 5.13302 36.55712 8.388106V216.087637A142.973396 142.973396 0 0 0 715.994944 71.862285h-39.061033v37.809077h36.557121a119.812207 119.812207 0 0 1 109.671361 109.671361zM351.300108 492.895149H182.661611v36.55712h152.613458a141.095462 141.095462 0 0 1 16.025039-36.55712zM292.95895 0h274.3036v36.557121H292.95895z m0 0" fill="#ffffff" p-id="16978"></path><path d="M164.758637 949.984351A134.58529 134.58529 0 0 1 36.558324 821.784038V219.217527a119.812207 119.812207 0 0 1 109.671362-109.671361H182.786806V73.114241h-39.186228A142.973396 142.973396 0 0 0 0.001204 216.087637v601.815336A168.01252 168.01252 0 0 0 167.26255 986.541471h192.300469a178.153365 178.153365 0 0 1-22.410015-36.55712zM420.533285 54.460094v36.55712h-109.671361v36.557121h237.871674V91.017214h-91.643192V54.460094z m274.929578 401.877934c-187.793427 0-329.514867 67.981221-329.514867 146.103287s141.72144 128.325509 329.514867 128.325508 329.514867-49.327074 329.514867-128.200313S882.630312 456.463224 695.462863 456.463224z m0 237.871675c-173.020344 0-292.957746-42.942097-292.957747-91.643193s119.812207-109.671362 292.957747-109.671361 292.957746 64.100156 292.957746 109.671361-119.812207 91.643192-292.957746 91.643193z m299.968701 137.840375a15.899844 15.899844 0 0 0-26.917058 11.517997 15.399061 15.399061 0 0 0 5.13302 11.517997 69.859155 69.859155 0 0 1 14.773083 42.942097c0 49.327074-119.186228 91.643192-292.957746 91.643193s-292.957746-45.571205-292.957747-93.521127a56.463224 56.463224 0 0 1 15.399061-43.568075 15.399061 15.399061 0 0 0 4.507042-10.892019 16.025039 16.025039 0 0 0-16.025039-16.025039 16.651017 16.651017 0 0 0-11.517997 4.507042 76.87011 76.87011 0 0 0-29.546165 64.100156c0 78.122066 142.347418 128.200313 329.514867 128.200313s330.766823-49.327074 330.766823-126.322378a64.100156 64.100156 0 0 0-28.794992-64.100157z m0 0" fill="#ffffff" p-id="16979"></path><path d="M987.794631 675.680751l7.010955 7.636933a15.899844 15.899844 0 0 0-26.917058 11.517997 15.399061 15.399061 0 0 0 5.13302 11.517997A64.100156 64.100156 0 0 1 987.794631 748.669797c0 49.327074-119.186228 91.643192-292.957746 91.643192S401.879138 797.99687 401.879138 748.669797a54.460094 54.460094 0 0 1 16.025039-44.820032 15.399061 15.399061 0 0 0 4.507042-10.892019 16.025039 16.025039 0 0 0-16.025039-16.025039 16.651017 16.651017 0 0 0-11.517997 4.507043 71.111111 71.111111 0 0 0-29.546165 64.100156c0 78.247261 142.347418 128.200313 329.514867 128.200313S1024.351752 823.787167 1024.351752 745.539906a91.017214 91.017214 0 0 0-36.557121-73.114241z m7.010955 7.636933z m0 0" fill="#ffffff" p-id="16980"></path><path d="M182.661611 328.888889h494.2723v36.55712H182.661611z m0 365.320814h118.56025a168.763693 168.763693 0 0 1 3.255086-36.557121h-121.815336z m640.375587-474.992176v192.30047c13.521127 0 25.665102 5.13302 36.55712 8.388106V216.087637A142.973396 142.973396 0 0 0 715.994944 71.862285h-39.061033v37.809077h36.557121a119.812207 119.812207 0 0 1 109.671361 109.671361zM351.300108 492.895149H182.661611v36.55712h152.613458a141.095462 141.095462 0 0 1 16.025039-36.55712zM292.95895 0h274.3036v36.557121H292.95895z m0 0" fill="#ffffff" p-id="16981"></path><path d="M164.758637 949.984351A134.58529 134.58529 0 0 1 36.558324 821.784038V219.217527a119.812207 119.812207 0 0 1 109.671362-109.671361H182.786806V73.114241h-39.186228A142.973396 142.973396 0 0 0 0.001204 216.087637v601.815336A168.01252 168.01252 0 0 0 167.26255 986.541471h192.300469a178.153365 178.153365 0 0 1-22.410015-36.55712zM420.533285 54.460094v36.55712h-109.671361v36.557121h237.871674V91.017214h-91.643192V54.460094z m274.929578 401.877934c-187.793427 0-329.514867 67.981221-329.514867 146.103287s141.72144 128.325509 329.514867 128.325508 329.514867-49.327074 329.514867-128.200313S882.630312 456.463224 695.462863 456.463224z m0 237.871675c-173.020344 0-292.957746-42.942097-292.957747-91.643193s119.812207-109.671362 292.957747-109.671361 292.957746 64.100156 292.957746 109.671361-119.812207 91.643192-292.957746 91.643193z m299.968701 137.840375a15.899844 15.899844 0 0 0-26.917058 11.517997 15.399061 15.399061 0 0 0 5.13302 11.517997 69.859155 69.859155 0 0 1 14.773083 42.942097c0 49.327074-119.186228 91.643192-292.957746 91.643193s-292.957746-45.571205-292.957747-93.521127a56.463224 56.463224 0 0 1 15.399061-43.568075 15.399061 15.399061 0 0 0 4.507042-10.892019 16.025039 16.025039 0 0 0-16.025039-16.025039 16.651017 16.651017 0 0 0-11.517997 4.507042 76.87011 76.87011 0 0 0-29.546165 64.100156c0 78.122066 142.347418 128.200313 329.514867 128.200313s330.766823-49.327074 330.766823-126.322378a64.100156 64.100156 0 0 0-28.794992-64.100157z m0 0" fill="#ffffff" p-id="16982"></path><path d="M987.794631 675.680751l7.010955 7.636933a15.899844 15.899844 0 0 0-26.917058 11.517997 15.399061 15.399061 0 0 0 5.13302 11.517997A64.100156 64.100156 0 0 1 987.794631 748.669797c0 49.327074-119.186228 91.643192-292.957746 91.643192S401.879138 797.99687 401.879138 748.669797a54.460094 54.460094 0 0 1 16.025039-44.820032 15.399061 15.399061 0 0 0 4.507042-10.892019 16.025039 16.025039 0 0 0-16.025039-16.025039 16.651017 16.651017 0 0 0-11.517997 4.507043 71.111111 71.111111 0 0 0-29.546165 64.100156c0 78.247261 142.347418 128.200313 329.514867 128.200313S1024.351752 823.787167 1024.351752 745.539906a91.017214 91.017214 0 0 0-36.557121-73.114241z m7.010955 7.636933z m0 0" fill="#ffffff" p-id="16983"></path></svg>
