<svg t="1683696385695" class="icon" viewBox="0 0 1024 1024" version="1.1" xmlns="http://www.w3.org/2000/svg" p-id="16460" width="128" height="128"><path d="M512 1024c-282.24 0-512-229.76-512-512s229.76-512 512-512 512 229.76 512 512-229.76 512-512 512zM512 64C264.96 64 64 264.96 64 512s200.96 448 448 448 448-200.96 448-448-200.96-448-448-448z" fill="#ffffff" p-id="16461"></path><path d="M646.4 792.32c-11.52 0-23.68-2.56-34.56-8.32l-97.28-51.2-101.76 51.2c-24.96 13.44-55.04 10.88-78.08-5.76s-34.56-44.8-29.44-72.32l18.56-108.16L243.2 516.48c-20.48-19.84-27.52-49.28-18.56-76.16 8.32-26.88 31.36-46.72 59.52-50.56l108.8-16 52.48-101.12c12.8-25.6 37.76-40.96 66.56-40.96 28.16 0 53.76 16 66.56 41.6L627.2 371.2l112.64 18.56c28.16 3.84 51.2 23.68 60.16 50.56 8.96 26.88 1.28 56.32-18.56 76.16l-78.72 76.8 17.28 112.64c4.48 28.16-6.4 55.68-29.44 72.32-14.08 9.6-29.44 14.08-44.16 14.08zM512 668.16c10.88 0 21.76 2.56 32 7.68l97.28 51.2c5.12 2.56 8.96 0.64 10.88-0.64s5.12-4.48 3.84-10.24L637.44 608c-3.84-22.4 3.84-44.8 19.84-60.8l78.72-76.8c3.84-3.84 3.2-8.32 2.56-10.24a8.96 8.96 0 0 0-8.32-7.04l-108.8-16c-22.4-3.2-41.6-17.28-51.84-37.12L520.96 300.8c-1.92-4.48-6.4-5.12-8.96-5.12 0 0.64-6.4 0.64-8.96 5.12L454.4 400c-10.24 19.84-29.44 33.92-51.84 37.12l-108.8 16a8.96 8.96 0 0 0-8.32 7.04c-0.64 1.92-1.28 6.4 2.56 10.24l78.72 76.8c16 16 23.68 38.4 19.84 60.8l-18.56 108.8c-0.64 5.76 1.92 8.32 3.84 10.24 1.92 1.28 5.76 3.2 10.88 0.64l97.28-51.2c10.24-5.76 21.12-8.32 32-8.32z" fill="#ffffff" p-id="16462"></path></svg>
